# xmcd
#
# Track frame offsets:
# 150
# 13090
# 28066
# 42997
# 63534
# 80347
# 94632
# 109295
# 126295
# 142020
# 160483
# 176592
# 190623
# 208066
#
# Disc length: 3035 seconds
#
#
# Revision: 0
# Processed by: cddbd v1.5.2PL0 Copyright (c) Steve Scherf et al.
# Submitted via: FreeRIP 2.96 
#
DISCID=c60bd90e
DTITLE=Gunther Neefs - My Soul
DYEAR=2008
DGENRE=
TTITLE0=Ain't No Mountain High Enough
TTITLE1=Signed Sealed Delivered I'm Yours
TTITLE2=My Cherie Amor
TTITLE3=Easy
TTITLE4=Upside Down
TTITLE5=Ain't Nothing Like The Real Thing (duet met Edsilia Rombley)
TTITLE6=Don't You Worry Bout A Thing
TTITLE7=I Believe [when I fall in love]
TTITLE8=I Heard It Through The Grapevine
TTITLE9=Lady Soul
TTITLE10=Reach Out I'll Be There
TTITLE11=You Are Everything
TTITLE12=Lady
TTITLE13=I'll be There
EXTD=
EXTT0=
EXTT1=
EXTT2=
EXTT3=
EXTT4=
EXTT5=
EXTT6=
EXTT7=
EXTT8=
EXTT9=
EXTT10=
EXTT11=
EXTT12=
EXTT13=
PLAYORDER=
